<svg xmlns="http://www.w3.org/2000/svg" fill="none" viewBox="0 0 299 299">
  <circle cx="149.5" cy="149.5" r="149.5" fill="#fff"/>
  <path fill="#010101" d="M127.059 100.514c-7.432 3.682-14.25 8.822-23.057 5.863-15.456-5.194-13.3-24.64-.659-31.631 9.117-5.043 20.494-3.606 30.303-1.968 19.233 3.21 38.306 10.544 57.971 10.599-3.857 14.11-10.905 27.936-16.337 41.524-1.573 3.934-3.306 12.773-6.979 15.142-4.37 2.819-15.666.677-20.821.677l-5.929 16.478h20.422c-6.085 22.261-17.821 49.979-34.914 65.852-10.829 10.056-27.327 14.7-40.184 5.472-11.626-8.344-13.42-26.342-2.574-36.176 5.983-5.425 13.35-6.147 21.019-6.147v-27.024c-15.282 0-29.201 2.352-40.817 13.295-22.636 21.324-19.312 60.981 5.903 78.692 7.424 5.215 16.159 7.771 25.032 9.037 7.376 1.052 15.101.724 22.398-.708 29.114-5.715 48.107-30.821 59.009-56.814 5.8-13.829 9.616-29.814 17.099-42.804 3.754-6.516 16.064-.415 21.866-3.073 3.661-1.677 6.368-12.373 7.427-16.08h-21.08c3.249-11.887 9.13-23.545 13.827-34.933 6.231-15.11 10.925-33.875 27.016-41.525-.866-3.781-3.039-17.287-7.334-18.187-10.18-2.13-19.239 7.307-27.58 10.878-3.797 1.626-9.111 1.53-13.175 1.351-37.284-1.633-91.469-32.067-120.052 6.617-3.221 4.36-5.341 9.306-6.806 14.501-1.974 6.998-2.251 14.625-.753 21.751 4.629 22.004 26.127 33.351 47.242 30.945 6.722-.765 13.404-3.219 19.104-6.845 1.746-1.11 4.954-2.74 5.256-5.045.676-5.171-9.01-15.513-11.843-19.714Z"/>
</svg>
